<svg xmlns="http://www.w3.org/2000/svg" viewBox="0 0 96 96" role="img" aria-labelledby="title desc">
  <title id="title">CYRI logo</title>
  <desc id="desc">Minimal abstract climate mark combining a horizon, water curve and leaf form.</desc>
  <defs>
    <linearGradient id="bg" x1="18" y1="12" x2="82" y2="88" gradientUnits="userSpaceOnUse">
      <stop offset="0" stop-color="#fbfffd"/>
      <stop offset="1" stop-color="#edf6f3"/>
    </linearGradient>
    <linearGradient id="mark" x1="22" y1="22" x2="78" y2="78" gradientUnits="userSpaceOnUse">
      <stop offset="0" stop-color="#11161d"/>
      <stop offset="0.62" stop-color="#183a33"/>
      <stop offset="1" stop-color="#16835f"/>
    </linearGradient>
    <linearGradient id="accent" x1="30" y1="58" x2="72" y2="42" gradientUnits="userSpaceOnUse">
      <stop offset="0" stop-color="#2774d8"/>
      <stop offset="1" stop-color="#16835f"/>
    </linearGradient>
  </defs>
  <rect x="4" y="4" width="88" height="88" rx="24" fill="url(#bg)"/>
  <rect x="4.5" y="4.5" width="87" height="87" rx="23.5" fill="none" stroke="#12161d" stroke-opacity=".08"/>
  <path
    d="M68.5 24.5c-18.7-.4-36.2 11.4-41.5 29.9-2.5 8.9-1.4 17.4 2.8 21.2 4.1 3.7 12.4 2.5 20.7-2.9 16.2-10.5 23.1-29.4 20.5-47.9-.1-.6-.6-1.1-1.5-1.3Z"
    fill="url(#mark)"
  />
  <path
    d="M28.7 59.2c8.2-5.9 18.2-7.2 28.4-3.6 6.4 2.3 11.8 2.2 16.8-.3"
    fill="none"
    stroke="url(#accent)"
    stroke-width="6"
    stroke-linecap="round"
  />
  <path
    d="M39.5 69.8c6.7-18.2 20.8-31.1 34-38.1"
    fill="none"
    stroke="#ffffff"
    stroke-width="5"
    stroke-linecap="round"
    stroke-opacity=".88"
  />
  <circle cx="30" cy="29" r="5.5" fill="#2774d8" fill-opacity=".9"/>
</svg>
