<svg xmlns="http://www.w3.org/2000/svg" viewBox="0 0 64 64" role="img" aria-labelledby="title desc">
  <title id="title">CYRI logo</title>
  <desc id="desc">Minimal abstract climate mark.</desc>
  <defs>
    <linearGradient id="bg" x1="10" y1="8" x2="54" y2="60" gradientUnits="userSpaceOnUse">
      <stop offset="0" stop-color="#fbfffd"/>
      <stop offset="1" stop-color="#edf6f3"/>
    </linearGradient>
    <linearGradient id="mark" x1="13" y1="13" x2="53" y2="55" gradientUnits="userSpaceOnUse">
      <stop offset="0" stop-color="#11161d"/>
      <stop offset=".62" stop-color="#183a33"/>
      <stop offset="1" stop-color="#16835f"/>
    </linearGradient>
    <linearGradient id="accent" x1="20" y1="39" x2="49" y2="29" gradientUnits="userSpaceOnUse">
      <stop offset="0" stop-color="#2774d8"/>
      <stop offset="1" stop-color="#16835f"/>
    </linearGradient>
  </defs>
  <rect x="3" y="3" width="58" height="58" rx="16" fill="url(#bg)"/>
  <rect x="3.5" y="3.5" width="57" height="57" rx="15.5" fill="none" stroke="#12161d" stroke-opacity=".08"/>
  <path
    d="M46 16.5c-12.4-.3-24.2 7.6-27.7 20.3-1.7 6.1-.8 11.8 2 14.2 2.8 2.5 8.4 1.6 13.9-2 10.8-7.2 15.5-19.8 13.8-32.1-.1-.4-.4-.8-1-.9Z"
    fill="url(#mark)"
  />
  <path
    d="M19.5 40c5.4-3.9 12-4.8 18.8-2.4 4.2 1.5 7.8 1.4 11.1-.2"
    fill="none"
    stroke="url(#accent)"
    stroke-width="4"
    stroke-linecap="round"
  />
  <path
    d="M26.5 47.1c4.4-12.1 13.9-20.7 22.7-25.4"
    fill="none"
    stroke="#fff"
    stroke-width="3.6"
    stroke-linecap="round"
    stroke-opacity=".88"
  />
  <circle cx="20" cy="19.5" r="3.6" fill="#2774d8" fill-opacity=".9"/>
</svg>
